<svg width="20" height="20" viewBox="0 0 20 20" fill="none" xmlns="http://www.w3.org/2000/svg">
<path d="M19.8055 8.0415H19V8H10V12H15.6515C14.827 14.3285 12.6115 16 10 16C6.6865 16 4 13.3135 4 10C4 6.6865 6.6865 4 10 4C11.5295 4 12.921 4.577 13.9805 5.5195L16.809 2.691C15.023 1.0265 12.634 0 10 0C4.4775 0 0 4.4775 0 10C0 15.5225 4.4775 20 10 20C15.5225 20 20 15.5225 20 10C20 9.3295 19.931 8.675 19.8055 8.0415Z" fill="#FFC107"/>
<path d="M1.15308 5.3455L4.43858 7.755C5.32758 5.554 7.48058 4 10.0001 4C11.5296 4 12.9211 4.577 13.9806 5.5195L16.8091 2.691C15.0231 1.0265 12.6341 0 10.0001 0C6.15908 0 2.82808 2.1685 1.15308 5.3455Z" fill="#FF3D00"/>
<path d="M9.99991 20C12.5829 20 14.9299 19.0115 16.7044 17.404L13.6094 14.785C12.5717 15.5742 11.3036 16.001 9.99991 16C7.39891 16 5.19041 14.3415 4.35841 12.027L1.09741 14.5395C2.75241 17.778 6.11341 20 9.99991 20Z" fill="#4CAF50"/>
<path d="M19.8055 8.0415H19V8H10V12H15.6515C15.2571 13.1082 14.5467 14.0766 13.608 14.7855L13.6095 14.7845L16.7045 17.4035C16.4855 17.6025 20 15 20 10C20 9.3295 19.931 8.675 19.8055 8.0415Z" fill="#1976D2"/>
</svg>
