<svg width="599" height="300" viewBox="0 0 599 300" fill="none" xmlns="http://www.w3.org/2000/svg">
<g opacity="0.7">
<mask id="mask0_1_13702" style="mask-type:luminance" maskUnits="userSpaceOnUse" x="0" y="0" width="599" height="300">
<path d="M599 0L0 0L0 299.5L599 299.5V0Z" fill="white"/>
</mask>
<g mask="url(#mask0_1_13702)">
<path d="M434.109 213.019L434.171 213.061L434.109 213.102V213.019Z" fill="white"/>
<path d="M418.01 213.061L418.374 212.853V213.269L418.01 213.061Z" fill="white"/>
<path d="M441.679 199.313L442.251 198.98V199.635L441.679 199.313Z" fill="white"/>
<path d="M409.847 198.512L411.23 199.313L409.847 200.114V198.512Z" fill="white"/>
<path d="M394.331 226.808L394.487 226.715V226.902L394.331 226.808Z" fill="white"/>
<path d="M433.578 184.609L435.221 185.565L433.578 186.512V184.609Z" fill="white"/>
<path d="M416.815 185.565L418.967 184.317V186.813L416.815 185.565Z" fill="white"/>
<path d="M393.219 199.313L395.049 198.252V200.363L393.219 199.313Z" fill="white"/>
<path d="M386.095 212.364L387.291 213.061L386.095 213.747V212.364Z" fill="white"/>
<path d="M457.881 199.209L458.057 199.313L457.881 199.406V199.209Z" fill="white"/>
<path d="M457.382 170.84L459.067 171.807L457.382 172.784V170.84Z" fill="white"/>
<path d="M440.442 171.807L442.875 170.403V173.221L440.442 171.807Z" fill="white"/>
<path d="M409.067 169.654L412.801 171.807L409.067 173.97V169.654Z" fill="white"/>
<path d="M391.503 171.807L395.902 169.27V174.355L391.503 171.807Z" fill="white"/>
<path d="M385.377 183.631L388.726 185.565L385.377 187.489V183.631Z" fill="white"/>
<path d="M369.29 213.061L371.286 211.907V214.215L369.29 213.061Z" fill="white"/>
<path d="M362.187 225.956L363.674 226.809L362.187 227.662V225.956Z" fill="white"/>
<path d="M370.465 240.557L370.694 240.432V240.692L370.465 240.557Z" fill="white"/>
<path d="M465.546 185.565L466.045 185.274V185.846L465.546 185.565Z" fill="white"/>
<path d="M464.443 158.059L466.596 156.811V159.307L464.443 158.059Z" fill="white"/>
<path d="M432.778 155.719L436.833 158.059L432.778 160.409V155.719Z" fill="white"/>
<path d="M414.974 158.059L419.882 155.23V160.898L414.974 158.059Z" fill="white"/>
<path d="M384.379 154.398L390.733 158.059L384.379 161.73V154.398Z" fill="white"/>
<path d="M367.896 185.565L371.983 183.194V187.926L367.896 185.565Z" fill="white"/>
<path d="M361.563 197.368L364.922 199.313L361.563 201.247V197.368Z" fill="white"/>
<path d="M345.143 226.809L347.638 225.363V228.254L345.143 226.809Z" fill="white"/>
<path d="M481.748 185.555L481.758 185.565H481.748V185.555Z" fill="white"/>
<path d="M456.748 142.242L460.325 144.311L456.748 146.381V142.242Z" fill="white"/>
<path d="M438.903 144.311L443.645 141.576V147.057L438.903 144.311Z" fill="white"/>
<path d="M408.11 140.495L414.724 144.311L408.11 148.138V140.495Z" fill="white"/>
<path d="M389.568 144.311L396.869 140.099V148.533L389.568 144.311Z" fill="white"/>
<path d="M365.848 158.059L373.002 153.931V162.198L365.848 158.059Z" fill="white"/>
<path d="M360.669 168.323L366.711 171.807L360.669 175.301V168.323Z" fill="white"/>
<path d="M343.822 199.313L348.304 196.724V201.903L343.822 199.313Z" fill="white"/>
<path d="M337.468 210.628L341.68 213.061L337.468 215.494V210.628Z" fill="white"/>
<path d="M338.123 239.278L340.348 240.557L338.123 241.836V239.278Z" fill="white"/>
<path d="M346.318 254.305L347.046 253.889V254.731L346.318 254.305Z" fill="white"/>
<path d="M489.474 171.807L489.807 171.62V172.005L489.474 171.807Z" fill="white"/>
<path d="M481.321 157.31L482.632 158.059L481.321 158.808V157.31Z" fill="white"/>
<path d="M480.812 128.931L483.641 130.563L480.812 132.196V128.931Z" fill="white"/>
<path d="M463.331 130.563L467.158 128.348V132.778L463.331 130.563Z" fill="white"/>
<path d="M432.029 126.934L438.32 130.563L432.029 134.193V126.934Z" fill="white"/>
<path d="M413.383 130.563L420.683 126.352V134.775L413.383 130.563Z" fill="white"/>
<path d="M383.568 125.488L392.355 130.563L383.568 135.638V125.488Z" fill="white"/>
<path d="M364.36 130.563L373.751 125.135V135.992L364.36 130.563Z" fill="white"/>
<path d="M359.774 139.278L368.499 144.311L359.774 149.355V139.278Z" fill="white"/>
<path d="M342.095 171.807L349.167 167.73V175.894L342.095 171.807Z" fill="white"/>
<path d="M336.74 181.884L343.115 185.565L336.74 189.247V181.884Z" fill="white"/>
<path d="M319.072 213.061L324.958 209.66V216.462L319.072 213.061Z" fill="white"/>
<path d="M313.134 223.481L318.895 226.809L313.134 230.137V223.481Z" fill="white"/>
<path d="M320.444 240.557L324.261 238.352V242.761L320.444 240.557Z" fill="white"/>
<path d="M338.685 267.741L339.225 268.063L338.685 268.375V267.741Z" fill="white"/>
<path d="M488.591 144.311L490.244 143.354V145.268L488.591 144.311Z" fill="white"/>
<path d="M487.696 116.815L490.691 115.089V118.542L487.696 116.815Z" fill="white"/>
<path d="M456.155 113.727L461.511 116.815L456.155 119.904V113.727Z" fill="white"/>
<path d="M437.665 116.815L444.269 112.999V120.622L437.665 116.815Z" fill="white"/>
<path d="M407.445 111.845L416.045 116.815L407.445 121.776V111.845Z" fill="white"/>
<path d="M388.216 116.815L397.545 111.429V122.202L388.216 116.815Z" fill="white"/>
<path d="M359.265 110.888L369.529 116.815L359.265 122.743V110.888Z" fill="white"/>
<path d="M340.484 144.311L349.968 138.841V149.781L340.484 144.311Z" fill="white"/>
<path d="M335.877 152.88L344.851 158.059L335.877 163.248V152.88Z" fill="white"/>
<path d="M317.688 185.565L325.644 180.969V190.151L317.688 185.565Z" fill="white"/>
<path d="M312.478 194.862L320.195 199.313L312.478 203.764V194.862Z" fill="white"/>
<path d="M293.936 226.809L301.798 222.275V231.343L293.936 226.809Z" fill="white"/>
<path d="M313.851 252.225L317.46 254.305L313.851 256.395V252.225Z" fill="white"/>
<path d="M321.775 268.063L323.595 267.013V269.113L321.775 268.063Z" fill="white"/>
<path d="M505.302 143.843L506.113 144.311L505.302 144.779V143.843Z" fill="white"/>
<path d="M480.365 100.655L484.535 103.068L480.365 105.47V100.655Z" fill="white"/>
<path d="M462.332 103.068L467.657 99.9893V106.135L462.332 103.068Z" fill="white"/>
<path d="M431.519 98.5542L439.329 103.068L431.519 107.57V98.5542Z" fill="white"/>
<path d="M412.374 103.068L421.182 97.9719V108.153L412.374 103.068Z" fill="white"/>
<path d="M383.131 97.2335L393.229 103.068L383.131 108.902V97.2335Z" fill="white"/>
<path d="M363.653 103.067L374.105 97.0255V109.099L363.653 103.067Z" fill="white"/>
<path d="M339.61 116.815L350.405 110.586V123.045L339.61 116.815Z" fill="white"/>
<path d="M335.336 124.448L345.933 130.563L335.336 136.678V124.448Z" fill="white"/>
<path d="M316.243 158.059L326.361 152.215V163.903L316.243 158.059Z" fill="white"/>
<path d="M311.761 166.108L321.64 171.807L311.761 177.516V166.108Z" fill="white"/>
<path d="M292.688 199.313L302.422 193.697V204.929L292.688 199.313Z" fill="white"/>
<path d="M287.915 207.289L297.898 213.061L287.915 218.833V207.289Z" fill="white"/>
<path d="M288.591 235.981L296.526 240.557L288.591 245.143V235.981Z" fill="white"/>
<path d="M295.496 254.305L301.018 251.122V257.497L295.496 254.305Z" fill="white"/>
<path d="M314.517 280.885L316.118 281.811L314.517 282.726V280.885Z" fill="white"/>
<path d="M322.774 295.559L323.096 295.371V295.746L322.774 295.559Z" fill="white"/>
<path d="M512.831 130.563L513.85 129.981V131.146L512.831 130.563Z" fill="white"/>
<path d="M504.886 115.619L506.956 116.815L504.886 118.011V115.619Z" fill="white"/>
<path d="M504.512 87.4894L507.684 89.3197L504.512 91.1395V87.4894Z" fill="white"/>
<path d="M486.875 89.3196L491.107 86.8654V91.7635L486.875 89.3196Z" fill="white"/>
<path d="M455.76 85.5447L462.301 89.3196L455.76 93.0842V85.5447Z" fill="white"/>
<path d="M436.885 89.3196L444.654 84.8271V93.8017L436.885 89.3196Z" fill="white"/>
<path d="M407.143 83.8288L416.648 89.3196L407.143 94.8V83.8288Z" fill="white"/>
<path d="M387.686 89.3196L397.815 83.4648V95.164L387.686 89.3196Z" fill="white"/>
<path d="M359.098 83.1008L369.851 89.3196L359.098 95.528V83.1008Z" fill="white"/>
<path d="M339.506 89.3196L350.457 82.9968V95.632L339.506 89.3196Z" fill="white"/>
<path d="M335.159 96.6303L346.297 103.067L335.159 109.494V96.6303Z" fill="white"/>
<path d="M315.505 130.563L326.736 124.085V137.042L315.505 130.563Z" fill="white"/>
<path d="M311.303 137.812L322.555 144.311L311.303 150.811V137.812Z" fill="white"/>
<path d="M291.461 171.807L303.036 165.131V178.494L291.461 171.807Z" fill="white"/>
<path d="M287.322 178.764L299.084 185.565L287.322 192.356V178.764Z" fill="white"/>
<path d="M267.335 213.061L279.377 206.104V220.018L267.335 213.061Z" fill="white"/>
<path d="M263.352 219.758L275.571 226.809L263.352 233.86V219.758Z" fill="white"/>
<path d="M268.656 240.557L278.712 234.754V246.37L268.656 240.557Z" fill="white"/>
<path d="M289.475 265.006L294.758 268.063L289.475 271.11V265.006Z" fill="white"/>
<path d="M297.067 281.811L300.228 279.98V283.631L297.067 281.811Z" fill="white"/>
<path d="M529.252 130.335L529.647 130.563L529.252 130.782V130.335Z" fill="white"/>
<path d="M512.093 103.067L514.225 101.83V104.295L512.093 103.067Z" fill="white"/>
<path d="M511.365 75.5614L514.578 73.7103V77.4228L511.365 75.5614Z" fill="white"/>
<path d="M479.98 72.4832L485.315 75.5614L479.98 78.65V72.4832Z" fill="white"/>
<path d="M461.625 75.5614L468.01 71.88V79.2531L461.625 75.5614Z" fill="white"/>
<path d="M431.27 70.6113L439.849 75.5614L431.27 80.5218V70.6113Z" fill="white"/>
<path d="M411.948 75.5613L421.401 70.1017V81.0314L411.948 75.5613Z" fill="white"/>
<path d="M383.017 69.5401L393.458 75.5614L383.017 81.5826V69.5401Z" fill="white"/>
<path d="M363.539 75.5613L374.157 69.4362V81.6969L363.539 75.5613Z" fill="white"/>
<path d="M335.263 69.3217L346.078 75.5613L335.263 81.8113V69.3217Z" fill="white"/>
<path d="M315.401 103.068L326.788 96.4951V109.64L315.401 103.068Z" fill="white"/>
<path d="M311.168 110.087L322.826 116.815L311.168 123.544V110.087Z" fill="white"/>
<path d="M290.973 144.311L303.275 137.208V151.424L290.973 144.311Z" fill="white"/>
<path d="M286.969 150.676L299.77 158.059L286.969 165.453V150.676Z" fill="white"/>
<path d="M266.357 185.565L279.866 177.755V193.365L266.357 185.565Z" fill="white"/>
<path d="M262.842 191.378L276.58 199.313L262.842 207.248V191.378Z" fill="white"/>
<path d="M242.096 226.809L256.27 218.625V234.993L242.096 226.809Z" fill="white"/>
<path d="M264.184 248.699L273.897 254.305L264.184 259.91V248.699Z" fill="white"/>
<path d="M270.538 268.063L277.776 263.882V272.233L270.538 268.063Z" fill="white"/>
<path d="M290.307 293.936L293.104 295.559L290.307 297.181V293.936Z" fill="white"/>
<path d="M536.895 116.815L537.54 116.441V117.19L536.895 116.815Z" fill="white"/>
<path d="M528.919 102.246L530.323 103.068L528.919 103.879V102.246Z" fill="white"/>
<path d="M504.148 59.3384L508.432 61.8134L504.148 64.2885V59.3384Z" fill="white"/>
<path d="M486.126 61.8134L491.481 58.7249V64.902L486.126 61.8134Z" fill="white"/>
<path d="M455.479 57.5498L462.863 61.8135L455.479 66.0772V57.5498Z" fill="white"/>
<path d="M436.448 61.8135L444.872 56.957V66.6803L436.448 61.8135Z" fill="white"/>
<path d="M407.102 56.2498L416.742 61.8135L407.102 67.3875V56.2498Z" fill="white"/>
<path d="M387.728 61.8134L397.784 56.0106V67.6266L387.728 61.8134Z" fill="white"/>
<path d="M359.306 55.9795L369.425 61.8135L359.306 67.6475V55.9795Z" fill="white"/>
<path d="M340.12 61.8134L350.145 56.021V67.6059L340.12 61.8134Z" fill="white"/>
<path d="M315.879 75.5613L326.549 69.405V81.7281L315.879 75.5613Z" fill="white"/>
<path d="M311.324 82.8616L322.503 89.3196L311.324 95.7672V82.8616Z" fill="white"/>
<path d="M291.097 116.815L303.213 109.817V123.814L291.097 116.815Z" fill="white"/>
<path d="M287.021 123.253L299.677 130.563L287.021 137.874V123.253Z" fill="white"/>
<path d="M265.921 158.059L280.084 149.885V166.243L265.921 158.059Z" fill="white"/>
<path d="M262.51 163.3L277.256 171.807L262.51 180.324V163.3Z" fill="white"/>
<path d="M241.295 199.313L256.665 190.432V208.184L241.295 199.313Z" fill="white"/>
<path d="M238.342 203.93L254.149 213.061L238.342 222.192V203.93Z" fill="white"/>
<path d="M238.914 232.424L253.005 240.557L238.914 248.699V232.424Z" fill="white"/>
<path d="M243.739 254.305L255.449 247.555V261.064L243.739 254.305Z" fill="white"/>
<path d="M265.224 278.005L271.817 281.811L265.224 285.617V278.005Z" fill="white"/>
<path d="M272.514 295.559L276.788 293.084V298.023L272.514 295.559Z" fill="white"/>
<path d="M553.129 116.691L553.347 116.815L553.129 116.94V116.691Z" fill="white"/>
<path d="M536.271 89.3196L537.852 88.4045V90.2244L536.271 89.3196Z" fill="white"/>
<path d="M528.576 74.1679L530.999 75.5614L528.576 76.9653V74.1679Z" fill="white"/>
<path d="M528.264 46.1313L531.623 48.0656L528.264 49.9998V46.1313Z" fill="white"/>
<path d="M510.699 48.0656L514.911 45.6322V50.499L510.699 48.0656Z" fill="white"/>
<path d="M479.72 44.5402L485.835 48.0656L479.72 51.591V44.5402Z" fill="white"/>
<path d="M461.23 48.0656L468.208 44.041V52.1005L461.23 48.0656Z" fill="white"/>
<path d="M431.28 43.1363L439.828 48.0656L431.28 53.0053V43.1363Z" fill="white"/>
<path d="M412.239 48.0656L421.255 42.8659V53.2652L412.239 48.0656Z" fill="white"/>
<path d="M383.391 42.6787L392.719 48.0656L383.391 53.4524V42.6787Z" fill="white"/>
<path d="M364.475 48.0656L373.699 42.7411V53.39L364.475 48.0656Z" fill="white"/>
<path d="M335.898 42.9283L344.799 48.0656L335.898 53.2028V42.9283Z" fill="white"/>
<path d="M317.272 48.0656L325.852 43.1155V53.0157L317.272 48.0656Z" fill="white"/>
<path d="M311.833 56.2395L321.484 61.8135L311.833 67.3875V56.2395Z" fill="white"/>
<path d="M291.628 89.3196L302.953 82.7785V95.8504L291.628 89.3196Z" fill="white"/>
<path d="M287.27 96.1936L299.167 103.068L287.27 109.931V96.1936Z" fill="white"/>
<path d="M266.42 130.563L279.835 122.816V138.311L266.42 130.563Z" fill="white"/>
<path d="M262.645 136.033L276.986 144.311L262.645 152.599V136.033Z" fill="white"/>
<path d="M240.869 171.807L256.884 162.562V181.062L240.869 171.807Z" fill="white"/>
<path d="M238.061 175.946L254.71 185.565L238.061 195.174V175.946Z" fill="white"/>
<path d="M216.306 213.061L233.444 203.161V222.961L216.306 213.061Z" fill="white"/>
<path d="M214.028 216.836L231.312 226.809L214.028 236.792V216.836Z" fill="white"/>
<path d="M217.158 240.557L233.017 231.395V249.719L217.158 240.557Z" fill="white"/>
<path d="M239.881 261.605L251.06 268.063L239.881 274.51V261.605Z" fill="white"/>
<path d="M245.933 281.811L254.357 276.944V286.678L245.933 281.811Z" fill="white"/>
<path d="M560.855 103.068L561.282 102.818V103.317L560.855 103.068Z" fill="white"/>
<path d="M552.869 88.7373L553.867 89.3196L552.869 89.8916V88.7373Z" fill="white"/>
<path d="M535.575 61.8135L538.195 60.3056V63.3318L535.575 61.8135Z" fill="white"/>
<path d="M535.138 34.3177L538.424 32.425V36.2104L535.138 34.3177Z" fill="white"/>
<path d="M503.961 31.5307L508.786 34.3177L503.961 37.1047V31.5307Z" fill="white"/>
<path d="M485.928 34.3177L491.575 31.0523V37.5831L485.928 34.3177Z" fill="white"/>
<path d="M455.583 30.2412L462.655 34.3177L455.583 38.3942V30.2412Z" fill="white"/>
<path d="M436.968 34.3177L444.612 29.9084V38.727L436.968 34.3177Z" fill="white"/>
<path d="M407.611 29.6484L415.702 34.3177L407.611 38.987V29.6484Z" fill="white"/>
<path d="M388.944 34.3177L397.181 29.5652V39.0702L388.944 34.3177Z" fill="white"/>
<path d="M360.076 29.8044L367.896 34.3177L360.076 38.8414V29.8044Z" fill="white"/>
<path d="M341.68 34.3177L349.375 29.8772V38.7582L341.68 34.3177Z" fill="white"/>
<path d="M312.697 30.2412L319.758 34.3177L312.697 38.3942V30.2412Z" fill="white"/>
<path d="M292.896 61.8135L302.318 56.3746V67.2523L292.896 61.8135Z" fill="white"/>
<path d="M287.707 69.4465L298.304 75.5613L287.707 81.6865V69.4465Z" fill="white"/>
<path d="M267.262 103.068L279.409 96.0584V110.077L267.262 103.068Z" fill="white"/>
<path d="M263.082 109.297L276.101 116.815L263.082 124.334V109.297Z" fill="white"/>
<path d="M241.451 144.311L256.592 135.565V153.057L241.451 144.311Z" fill="white"/>
<path d="M238.207 148.71L254.398 158.059L238.207 167.408V148.71Z" fill="white"/>
<path d="M215.931 185.565L233.631 175.343V195.777L215.931 185.565Z" fill="white"/>
<path d="M213.831 188.976L231.717 199.313L213.831 209.64V188.976Z" fill="white"/>
<path d="M191.878 226.809L209.941 216.378V237.239L191.878 226.809Z" fill="white"/>
<path d="M214.725 245.538L229.929 254.305L214.725 263.082V245.538Z" fill="white"/>
<path d="M219.113 268.063L232.04 260.596V275.519L219.113 268.063Z" fill="white"/>
<path d="M241.066 291.16L248.689 295.559L241.066 299.958V291.16Z" fill="white"/>
<path d="M576.943 102.943L577.162 103.067L576.943 103.182V102.943Z" fill="white"/>
<path d="M560.346 75.5613L561.531 74.875V76.2581L560.346 75.5613Z" fill="white"/>
<path d="M552.567 60.7216L554.47 61.8135L552.567 62.9158V60.7216Z" fill="white"/>
<path d="M528.139 18.4172L531.873 20.5698L528.139 22.7225V18.4172Z" fill="white"/>
<path d="M510.616 20.5698L514.953 18.0636V23.076L510.616 20.5698Z" fill="white"/>
<path d="M479.876 17.3044L485.523 20.5698L479.876 23.8352V17.3044Z" fill="white"/>
<path d="M461.781 20.5698L467.927 17.0133V24.116L461.781 20.5698Z" fill="white"/>
<path d="M431.821 16.5661L438.736 20.5698L431.821 24.5632V16.5661Z" fill="white"/>
<path d="M413.56 20.5698L420.6 16.5037V24.6255L413.56 20.5698Z" fill="white"/>
<path d="M384.192 16.5661L391.118 20.5698L384.192 24.5735V16.5661Z" fill="white"/>
<path d="M366.16 20.5698L372.846 16.7013V24.428L366.16 20.5698Z" fill="white"/>
<path d="M336.792 16.9717L343.021 20.5698L336.792 24.168V16.9717Z" fill="white"/>
<path d="M319.072 20.5698L324.947 17.1693V23.96L319.072 20.5698Z" fill="white"/>
<path d="M294.571 34.3177L301.476 30.3244V38.311L294.571 34.3177Z" fill="white"/>
<path d="M288.518 43.3651L296.671 48.0656L288.518 52.7661V43.3651Z" fill="white"/>
<path d="M268.344 75.5614L278.878 69.4882V81.645L268.344 75.5614Z" fill="white"/>
<path d="M263.591 82.6849L275.082 89.3197L263.591 95.944V82.6849Z" fill="white"/>
<path d="M242.626 116.815L256.01 109.089V124.542L242.626 116.815Z" fill="white"/>
<path d="M238.778 122.192L253.275 130.563L238.778 138.935V122.192Z" fill="white"/>
<path d="M216.566 158.059L233.319 148.398V167.73L216.566 158.059Z" fill="white"/>
<path d="M213.893 161.595L231.593 171.807L213.893 182.029V161.595Z" fill="white"/>
<path d="M191.628 199.313L210.056 188.675V209.952L191.628 199.313Z" fill="white"/>
<path d="M189.787 202.339L208.35 213.061L189.787 223.783V202.339Z" fill="white"/>
<path d="M190.141 230.449L207.653 240.557L190.141 250.665V230.449Z" fill="white"/>
<path d="M193.188 254.305L209.286 245.018V263.602L193.188 254.305Z" fill="white"/>
<path d="M215.89 275.041L227.61 281.811L215.89 288.57V275.041Z" fill="white"/>
<path d="M221.599 295.559L230.802 290.245V300.873L221.599 295.559Z" fill="white"/>
<path d="M584.701 89.3196L585.086 89.0908V89.538L584.701 89.3196Z" fill="white"/>
<path d="M576.756 75.1246L577.536 75.5613L576.756 76.0085V75.1246Z" fill="white"/>
<path d="M559.847 48.0656L561.781 46.9425V49.1887L559.847 48.0656Z" fill="white"/>
<path d="M552.349 32.841L554.907 34.3177L552.349 35.7944V32.841Z" fill="white"/>
<path d="M552.286 5.23085L555.042 6.82194L552.286 8.41304V5.23085Z" fill="white"/>
<path d="M535.138 6.82194L538.424 4.91887V8.71461L535.138 6.82194Z" fill="white"/>
<path d="M504.127 4.3157L508.464 6.82194L504.127 9.32818V4.3157Z" fill="white"/>
<path d="M486.469 6.82194L491.305 4.02452V9.60894L486.469 6.82194Z" fill="white"/>
<path d="M456.082 3.60857L461.656 6.82195L456.082 10.0353V3.60857Z" fill="white"/>
<path d="M438.216 6.82195L443.988 3.48376V10.1497L438.216 6.82195Z" fill="white"/>
<path d="M408.37 3.46297L414.194 6.82194L408.37 10.1705V3.46297Z" fill="white"/>
<path d="M390.64 6.82194L396.338 3.52536V10.1081L390.64 6.82194Z" fill="white"/>
<path d="M360.908 3.74374L366.232 6.82195L360.908 9.88974V3.74374Z" fill="white"/>
<path d="M343.427 6.82194L348.502 3.88933V9.74414L343.427 6.82194Z" fill="white"/>
<path d="M313.508 4.13892L318.146 6.82194L313.508 9.49455V4.13892Z" fill="white"/>
<path d="M296.079 6.82194L300.727 4.13892V9.50496L296.079 6.82194Z" fill="white"/>
<path d="M289.329 17.2628L295.059 20.5698L289.329 23.8768V17.2628Z" fill="white"/>
<path d="M270.008 48.0656L278.036 43.4275V52.7037L270.008 48.0656Z" fill="white"/>
<path d="M264.35 56.489L273.575 61.8135L264.35 67.1483V56.489Z" fill="white"/>
<path d="M243.822 89.3196L255.407 82.6225V96.0064L243.822 89.3196Z" fill="white"/>
<path d="M239.444 95.8608L251.923 103.068L239.444 110.264V95.8608Z" fill="white"/>
<path d="M217.928 130.563L232.632 122.067V139.06L217.928 130.563Z" fill="white"/>
<path d="M214.506 135.16L230.365 144.311L214.506 153.463V135.16Z" fill="white"/>
<path d="M191.992 171.807L209.879 161.48V182.144L191.992 171.807Z" fill="white"/>
<path d="M189.818 174.896L208.298 185.565L189.818 196.224V174.896Z" fill="white"/>
<path d="M167.72 213.061L186.293 202.339V223.783L167.72 213.061Z" fill="white"/>
<path d="M166.098 216.306L184.296 226.809L166.098 237.323V216.306Z" fill="white"/>
<path d="M168.323 240.557L185.992 230.365V250.758L168.323 240.557Z" fill="white"/>
<path d="M191.066 259.556L205.792 268.063L191.066 276.559V259.556Z" fill="white"/>
<path d="M195.549 281.811L208.101 274.562V289.049L195.549 281.811Z" fill="white"/>
<path d="M584.316 61.8134L585.273 61.2623V62.3646L584.316 61.8134Z" fill="white"/>
<path d="M576.538 47.244L577.962 48.0656L576.538 48.8871V47.244Z" fill="white"/>
<path d="M559.545 20.5698L561.937 19.1867V21.9425L559.545 20.5698Z" fill="white"/>
<path d="M271.557 20.5698L277.266 17.2733V23.8664L271.557 20.5698Z" fill="white"/>
<path d="M265.141 30.3556L271.994 34.3177L265.141 38.2694V30.3556Z" fill="white"/>
<path d="M245.455 61.8135L254.596 56.541V67.0859L245.455 61.8135Z" fill="white"/>
<path d="M240.13 69.5506L250.561 75.5613L240.13 81.5826V69.5506Z" fill="white"/>
<path d="M219.529 103.068L231.832 95.9544V110.17L219.529 103.068Z" fill="white"/>
<path d="M215.38 109.172L228.618 116.815L215.38 124.459V109.172Z" fill="white"/>
<path d="M193.448 144.311L209.151 135.253V153.379L193.448 144.311Z" fill="white"/>
<path d="M190.37 148.336L207.206 158.059L190.37 167.782V148.336Z" fill="white"/>
<path d="M167.876 185.565L186.21 174.979V196.152L167.876 185.565Z" fill="white"/>
<path d="M166.035 188.695L184.421 199.313L166.035 209.92V188.695Z" fill="white"/>
<path d="M144.478 226.809L162.198 216.576V237.042L144.478 226.809Z" fill="white"/>
<path d="M166.742 244.914L183.007 254.305L166.742 263.695V244.914Z" fill="white"/>
<path d="M170.247 268.063L185.024 259.525V276.59L170.247 268.063Z" fill="white"/>
<path d="M192.46 289.475L203.005 295.559L192.46 301.642V289.475Z" fill="white"/>
<path d="M583.973 34.3177L585.45 33.465V35.1704L583.973 34.3177Z" fill="white"/>
<path d="M576.402 19.5091L578.243 20.5698L576.402 21.6305V19.5091Z" fill="white"/>
<path d="M265.827 4.04533L270.621 6.82195L265.827 9.58817V4.04533Z" fill="white"/>
<path d="M247.004 34.3177L253.816 30.3764V38.2486L247.004 34.3177Z" fill="white"/>
<path d="M241.004 43.5627L248.814 48.0656L241.004 52.5685V43.5627Z" fill="white"/>
<path d="M221.027 75.5614L231.083 69.7586V81.3746L221.027 75.5614Z" fill="white"/>
<path d="M216.139 82.976L227.11 89.3196L216.139 95.6528V82.976Z" fill="white"/>
<path d="M195.372 116.815L208.184 109.411V124.209L195.372 116.815Z" fill="white"/>
<path d="M191.285 122.431L205.365 130.563L191.285 138.696V122.431Z" fill="white"/>
<path d="M169.103 158.059L185.596 148.533V167.585L169.103 158.059Z" fill="white"/>
<path d="M166.358 161.751L183.777 171.807L166.358 181.873V161.751Z" fill="white"/>
<path d="M144.405 199.313L162.229 189.018V209.598L144.405 199.313Z" fill="white"/>
<path d="M142.439 202.828L160.16 213.061L142.439 223.294V202.828Z" fill="white"/>
<path d="M142.824 230.989L159.401 240.557L142.824 250.124V230.989Z" fill="white"/>
<path d="M145.777 254.305L161.543 245.205V263.414L145.777 254.305Z" fill="white"/>
<path d="M167.928 274.469L180.646 281.811L167.928 289.153V274.469Z" fill="white"/>
<path d="M172.992 295.559L183.662 289.392V301.715L172.992 295.559Z" fill="white"/>
<path d="M583.807 6.82195L585.522 5.82361V7.80988L583.807 6.82195Z" fill="white"/>
<path d="M248.242 6.82194L253.202 3.95172V9.68175L248.242 6.82194Z" fill="white"/>
<path d="M241.68 17.2316L247.462 20.5698L241.68 23.8976V17.2316Z" fill="white"/>
<path d="M222.712 48.0656L230.241 43.7187V52.4125L222.712 48.0656Z" fill="white"/>
<path d="M216.981 56.9466L225.415 61.8135L216.981 66.6803V56.9466Z" fill="white"/>
<path d="M196.942 89.3197L207.404 83.2777V95.3512L196.942 89.3197Z" fill="white"/>
<path d="M192.231 96.5679L203.483 103.068L192.231 109.567V96.5679Z" fill="white"/>
<path d="M171.069 130.563L184.619 122.733V138.384L171.069 130.563Z" fill="white"/>
<path d="M167.221 135.753L182.05 144.311L167.221 152.87V135.753Z" fill="white"/>
<path d="M145.06 171.807L161.907 162.084V181.541L145.06 171.807Z" fill="white"/>
<path d="M142.585 175.571L159.879 185.565L142.585 195.549V175.571Z" fill="white"/>
<path d="M121.152 213.061L138.134 203.254V222.868L121.152 213.061Z" fill="white"/>
<path d="M119.103 217.397L135.409 226.809L119.103 236.231V217.397Z" fill="white"/>
<path d="M121.984 240.557L137.718 231.478V249.646L121.984 240.557Z" fill="white"/>
<path d="M143.781 260.149L157.487 268.063L143.781 275.977V260.149Z" fill="white"/>
<path d="M148.159 281.811L160.347 274.77V288.851L148.159 281.811Z" fill="white"/>
<path d="M223.939 20.5698L229.627 17.2836V23.856L223.939 20.5698Z" fill="white"/>
<path d="M217.668 30.6364L224.043 34.3177L217.668 37.9991V30.6364Z" fill="white"/>
<path d="M198.668 61.8135L206.541 57.269V66.3684L198.668 61.8135Z" fill="white"/>
<path d="M193.032 70.4657L201.871 75.5614L193.032 80.6674V70.4657Z" fill="white"/>
<path d="M173.107 103.067L183.6 97.0047V109.12L173.107 103.067Z" fill="white"/>
<path d="M168.323 110.149L179.856 116.815L168.323 123.471V110.149Z" fill="white"/>
<path d="M146.859 144.311L161.002 136.148V152.475L146.859 144.311Z" fill="white"/>
<path d="M143.24 149.22L158.558 158.059L143.24 166.909V149.22Z" fill="white"/>
<path d="M121.37 185.565L138.02 175.946V195.174L121.37 185.565Z" fill="white"/>
<path d="M118.979 189.683L135.649 199.313L118.979 208.932V189.683Z" fill="white"/>
<path d="M98.3358 226.809L113.82 217.865V235.752L98.3358 226.809Z" fill="white"/>
<path d="M119.935 246.339L133.735 254.305L119.935 262.281V246.339Z" fill="white"/>
<path d="M124.105 268.063L136.657 260.815V275.301L124.105 268.063Z" fill="white"/>
<path d="M145.133 289.995L154.773 295.559L145.133 301.122V289.995Z" fill="white"/>
<path d="M218.105 3.88933L223.169 6.82194L218.105 9.74414V3.88933Z" fill="white"/>
<path d="M199.937 34.3177L205.906 30.8651V37.7703L199.937 34.3177Z" fill="white"/>
<path d="M193.833 44.3427L200.27 48.0656L193.833 51.7885V44.3427Z" fill="white"/>
<path d="M174.781 75.5613L182.768 70.9545V80.1682L174.781 75.5613Z" fill="white"/>
<path d="M169.228 84.224L178.036 89.3196L169.228 94.4049V84.224Z" fill="white"/>
<path d="M149.22 116.815L159.827 110.701V122.93L149.22 116.815Z" fill="white"/>
<path d="M144.353 123.648L156.343 130.563L144.353 137.479V123.648Z" fill="white"/>
<path d="M122.743 158.059L137.333 149.636V166.493L122.743 158.059Z" fill="white"/>
<path d="M119.353 162.832L134.91 171.807L119.353 180.792V162.832Z" fill="white"/>
<path d="M97.9718 199.313L114.008 190.058V208.568L97.9718 199.313Z" fill="white"/>
<path d="M95.5072 204.034L111.148 213.061L95.5072 222.088V204.034Z" fill="white"/>
<path d="M96.1312 232.601L109.9 240.557L96.1312 248.512V232.601Z" fill="white"/>
<path d="M100.239 254.305L112.864 247.015V261.594L100.239 254.305Z" fill="white"/>
<path d="M121.173 275.977L131.27 281.811L121.173 287.634V275.977Z" fill="white"/>
<path d="M126.747 295.559L135.337 290.598V300.519L126.747 295.559Z" fill="white"/>
<path d="M200.603 6.82194L205.573 3.94133V9.69214L200.603 6.82194Z" fill="white"/>
<path d="M194.28 17.6268L199.365 20.5698L194.28 23.5024V17.6268Z" fill="white"/>
<path d="M176.331 48.0656L181.988 44.8002V51.331L176.331 48.0656Z" fill="white"/>
<path d="M170.081 58.2049L176.331 61.8135L170.081 65.4324V58.2049Z" fill="white"/>
<path d="M151.05 89.3196L158.901 84.7855V93.8433L151.05 89.3196Z" fill="white"/>
<path d="M145.486 98.107L154.076 103.067L145.486 108.018V98.107Z" fill="white"/>
<path d="M125 130.563L136.21 124.085V137.042L125 130.563Z" fill="white"/>
<path d="M120.32 137.011L132.976 144.311L120.32 151.622V137.011Z" fill="white"/>
<path d="M98.6375 171.807L113.664 163.134V180.49L98.6375 171.807Z" fill="white"/>
<path d="M95.528 176.58L111.096 185.565L95.528 194.54V176.58Z" fill="white"/>
<path d="M74.7086 213.061L89.9124 204.284V221.838L74.7086 213.061Z" fill="white"/>
<path d="M72.1191 218.521L86.4806 226.809L72.1191 235.097V218.521Z" fill="white"/>
<path d="M76.1021 240.557L89.2156 232.986V248.138L76.1021 240.557Z" fill="white"/>
<path d="M97.3375 262.198L107.487 268.063L97.3375 273.918V262.198Z" fill="white"/>
<path d="M102.776 281.811L111.595 276.715V286.896L102.776 281.811Z" fill="white"/>
<path d="M177.121 20.5698L181.593 17.9908V23.1488L177.121 20.5698Z" fill="white"/>
<path d="M170.642 31.6867L175.208 34.3177L170.642 36.9487V31.6867Z" fill="white"/>
<path d="M152.755 61.8135L158.049 58.7561V64.8709L152.755 61.8135Z" fill="white"/>
<path d="M146.349 72.0984L152.35 75.5614L146.349 79.0243V72.0984Z" fill="white"/>
<path d="M127.391 103.068L135.014 98.6686V107.466L127.391 103.068Z" fill="white"/>
<path d="M121.599 111.72L130.418 116.815L121.599 121.901V111.72Z" fill="white"/>
<path d="M100.593 144.311L112.687 137.333V151.3L100.593 144.311Z" fill="white"/>
<path d="M96.2247 150.28L109.713 158.059L96.2247 165.848V150.28Z" fill="white"/>
<path d="M74.6982 185.565L89.9124 176.778V194.342L74.6982 185.565Z" fill="white"/>
<path d="M71.8176 190.505L87.0734 199.313L71.8176 208.121V190.505Z" fill="white"/>
<path d="M51.5702 226.809L65.7548 218.614V235.004L51.5702 226.809Z" fill="white"/>
<path d="M73.2319 247.94L84.2552 254.305L73.2319 260.679V247.94Z" fill="white"/>
<path d="M78.6708 268.063L87.9262 262.718V273.408L78.6708 268.063Z" fill="white"/>
<path d="M98.6166 291.919L104.919 295.559L98.6166 299.198V291.919Z" fill="white"/>
<path d="M170.861 4.55489L174.781 6.82194L170.861 9.07859V4.55489Z" fill="white"/>
<path d="M153.816 34.3177L157.518 32.1754V36.4496L153.816 34.3177Z" fill="white"/>
<path d="M147.077 45.8713L150.884 48.0656L147.077 50.2598V45.8713Z" fill="white"/>
<path d="M129.17 75.5613L134.13 72.7015V78.4316L129.17 75.5613Z" fill="white"/>
<path d="M122.597 85.9606L128.411 89.3196L122.597 92.6682V85.9606Z" fill="white"/>
<path d="M103.307 116.815L111.335 112.177V121.443L103.307 116.815Z" fill="white"/>
<path d="M97.4415 124.896L107.269 130.563L97.4415 136.231V124.896Z" fill="white"/>
<path d="M76.0917 158.059L89.2156 150.488V165.64L76.0917 158.059Z" fill="white"/>
<path d="M72.1504 163.581L86.4078 171.807L72.1504 180.043V163.581Z" fill="white"/>
<path d="M50.915 199.313L66.0876 190.546V208.069L50.915 199.313Z" fill="white"/>
<path d="M48.076 204.378L63.1134 213.061L48.076 221.744V204.378Z" fill="white"/>
<path d="M48.9183 233.329L61.4391 240.557L48.9183 247.795V233.329Z" fill="white"/>
<path d="M53.962 254.305L64.5589 248.19V260.43L53.962 254.305Z" fill="white"/>
<path d="M74.5526 277.724L81.6137 281.811L74.5526 285.887V277.724Z" fill="white"/>
<path d="M81.177 295.559L86.6782 292.387V298.73L81.177 295.559Z" fill="white"/>
<path d="M154.191 6.82194L157.331 5.00206V8.63141L154.191 6.82194Z" fill="white"/>
<path d="M147.389 18.9059L150.27 20.5698L147.389 22.2233V18.9059Z" fill="white"/>
<path d="M130.532 48.0656L133.444 46.3809V49.7503L130.532 48.0656Z" fill="white"/>
<path d="M123.429 59.9104L126.736 61.8134L123.429 63.7269V59.9104Z" fill="white"/>
<path d="M105.397 89.3196L110.285 86.491V92.1378L105.397 89.3196Z" fill="white"/>
<path d="M98.731 99.6253L104.69 103.067L98.731 106.499V99.6253Z" fill="white"/>
<path d="M78.6084 130.563L87.9574 125.166V135.961L78.6084 130.563Z" fill="white"/>
<path d="M73.1487 137.801L84.4215 144.311L73.1487 150.821V137.801Z" fill="white"/>
<path d="M51.6013 171.807L65.7444 163.643V179.981L51.6013 171.807Z" fill="white"/>
<path d="M48.076 176.871L63.1238 185.565L48.076 194.249V176.871Z" fill="white"/>
<path d="M26.9446 213.061L42.346 204.17V221.952L26.9446 213.061Z" fill="white"/>
<path d="M24.3864 218.354L39.0494 226.809L24.3864 235.274L24.3864 218.354Z" fill="white"/>
<path d="M28.7125 240.557L41.4621 233.194V247.919L28.7125 240.557Z" fill="white"/>
<path d="M50.291 263.206L58.6937 268.063L50.291 272.909V263.206Z" fill="white"/>
<path d="M56.645 281.811L63.2174 278.015V285.596L56.645 281.811Z" fill="white"/>
<path d="M131.104 20.5698L133.153 19.3843V21.7449L131.104 20.5698Z" fill="white"/>
<path d="M123.887 33.1946L125.832 34.3177L123.887 35.4408V33.1946Z" fill="white"/>
<path d="M107.04 61.8134L109.463 60.4199V63.2174L107.04 61.8134Z" fill="white"/>
<path d="M99.6774 73.7623L102.797 75.5613L99.6774 77.3708V73.7623Z" fill="white"/>
<path d="M81.3434 103.068L86.595 100.041V106.094L81.3434 103.068Z" fill="white"/>
<path d="M74.6357 112.884L81.4369 116.815L74.6357 120.746V112.884Z" fill="white"/>
<path d="M53.6812 144.311L64.7044 137.957V150.676L53.6812 144.311Z" fill="white"/>
<path d="M48.8247 150.676L61.6263 158.059L48.8247 165.453V150.676Z" fill="white"/>
<path d="M26.9342 185.565L42.3564 176.663V194.457L26.9342 185.565Z" fill="white"/>
<path d="M23.9912 190.162L39.8398 199.313L23.9912 208.464L23.9912 190.162Z" fill="white"/>
<path d="M3.29663 226.809L18.4484 218.063V235.555L3.29663 226.809Z" fill="white"/>
<path d="M25.6863 248.086L36.46 254.305L25.6863 260.534V248.086Z" fill="white"/>
<path d="M31.6139 268.063L40.0165 263.206V272.909L31.6139 268.063Z" fill="white"/>
<path d="M51.5909 292.959L56.0938 295.559L51.5909 298.159V292.959Z" fill="white"/>
<path d="M123.98 5.8548L125.655 6.82194L123.98 7.78907V5.8548Z" fill="white"/>
<path d="M107.914 34.3177L109.026 33.673V34.9625L107.914 34.3177Z" fill="white"/>
<path d="M100.291 47.3168L101.58 48.0656L100.291 48.8143V47.3168Z" fill="white"/>
<path d="M83.2152 75.5614L85.6591 74.1575V76.9757L83.2152 75.5614Z" fill="white"/>
<path d="M75.7382 87.2918L79.2427 89.3196L75.7382 91.3371V87.2918Z" fill="white"/>
<path d="M56.749 116.815L63.1654 113.103V120.518L56.749 116.815Z" fill="white"/>
<path d="M50.187 125.54L58.8912 130.563L50.187 135.586V125.54Z" fill="white"/>
<path d="M28.5565 158.059L41.5453 150.561V165.557L28.5565 158.059Z" fill="white"/>
<path d="M24.3967 163.363L39.0286 171.807L24.3967 180.262L24.3967 163.363Z" fill="white"/>
<path d="M2.50623 199.313L18.8435 189.871L18.8435 208.745L2.50623 199.313Z" fill="white"/>
<path d="M0 203.598L16.3789 213.061L0 222.514L0 203.598Z" fill="white"/>
<path d="M0.883911 232.633L14.611 240.557L0.883911 248.481L0.883911 232.633Z" fill="white"/>
<path d="M5.93799 254.305L17.1276 247.847V260.773L5.93799 254.305Z" fill="white"/>
<path d="M27.1733 278.161L33.4857 281.811L27.1733 285.451V278.161Z" fill="white"/>
<path d="M34.2969 295.559L38.675 293.032V298.086L34.2969 295.559Z" fill="white"/>
<path d="M107.955 6.82194L109.006 6.21878V7.4251L107.955 6.82194Z" fill="white"/>
<path d="M100.499 20.185L101.154 20.5698L100.499 20.9442V20.185Z" fill="white"/>
<path d="M84.3904 48.0656L85.0767 47.6704V48.4608L84.3904 48.0656Z" fill="white"/>
<path d="M76.5493 61.1895L77.6204 61.8134L76.5493 62.4374V61.1895Z" fill="white"/>
<path d="M59.0265 89.3197L62.0319 87.5726V91.0563L59.0265 89.3197Z" fill="white"/>
<path d="M51.6326 100.551L56.0003 103.068L51.6326 105.584V100.551Z" fill="white"/>
<path d="M31.4579 130.563L40.0893 125.582V135.545L31.4579 130.563Z" fill="white"/>
<path d="M25.5823 137.926L36.6471 144.311L25.5823 150.707V137.926Z" fill="white"/>
<path d="M3.43176 171.807L18.386 163.175V180.438L3.43176 171.807Z" fill="white"/>
<path d="M0.03125 176.143L16.327 185.565L0.03125 194.977L0.03125 176.143Z" fill="white"/>
<path d="M2.45422 262.853L11.4704 268.063L2.45422 273.263L2.45422 262.853Z" fill="white"/>
<path d="M9.01624 281.811L15.5886 278.015V285.596L9.01624 281.811Z" fill="white"/>
<path d="M84.7231 20.5698L84.8999 20.4658V20.6738L84.7231 20.5698Z" fill="white"/>
<path d="M76.8613 34.2449L76.9855 34.3173L76.8613 34.3898V34.2449Z" fill="white"/>
<path d="M60.5864 61.8135L61.252 61.4287V62.1982L60.5864 61.8135Z" fill="white"/>
<path d="M52.5894 74.6878L54.0973 75.5614L52.5894 76.4453V74.6878Z" fill="white"/>
<path d="M34.4425 103.068L38.6022 100.665V105.47L34.4425 103.068Z" fill="white"/>
<path d="M27.2462 113.311L33.3298 116.815L27.2462 120.32V113.311Z" fill="white"/>
<path d="M5.89636 144.311L17.1484 137.812V150.811L5.89636 144.311Z" fill="white"/>
<path d="M0.935913 150.218L14.5174 158.059L0.935913 165.911L0.935913 150.218Z" fill="white"/>
<path d="M3.92053 292.886L8.54822 295.559L3.92053 298.231L3.92053 292.886Z" fill="white"/>
<path d="M76.8405 6.70755L77.038 6.82194L76.8405 6.93634V6.70755Z" fill="white"/>
<path d="M53.0885 48.0656H53.0985L53.0885 48.0756V48.0656Z" fill="white"/>
<path d="M36.3247 75.5613L37.6558 74.8022V76.3309L36.3247 75.5613Z" fill="white"/>
<path d="M28.4629 87.9053L30.9067 89.3196L28.4629 90.7235V87.9053Z" fill="white"/>
<path d="M9.32812 116.815L15.4325 113.29V120.341L9.32812 116.815Z" fill="white"/>
<path d="M2.53748 125.499L11.3145 130.563L2.53748 135.628L2.53748 125.499Z" fill="white"/>
<path d="M29.2013 61.6887L29.4301 61.8135L29.2013 61.9487V61.6887Z" fill="white"/>
<path d="M11.824 89.3197L14.1846 87.9574V90.682L11.824 89.3197Z" fill="white"/>
<path d="M4.12854 100.759L8.11147 103.068L4.12854 105.366L4.12854 100.759Z" fill="white"/>
<path d="M13.3007 61.813L13.4455 61.7303V61.9062L13.3007 61.813Z" fill="white"/>
<path d="M5.0957 74.9374L6.18763 75.5614L5.0957 76.1957V74.9374Z" fill="white"/>
<path d="M470.298 283.017L470.402 283.069L470.298 283.131V283.017Z" fill="white"/>
<path d="M478.212 269.321L478.305 269.269V269.383L478.212 269.321Z" fill="white"/>
<path d="M477.994 296.827L478.41 296.578V297.067L477.994 296.827Z" fill="white"/>
<path d="M494.061 269.186L494.31 269.321L494.061 269.467V269.186Z" fill="white"/>
<path d="M501.954 255.573L502.151 255.459V255.688L501.954 255.573Z" fill="white"/>
<path d="M517.927 228.026L518.02 228.077L517.927 228.129V228.026Z" fill="white"/>
<path d="M525.893 214.329L525.903 214.319V214.329H525.893Z" fill="white"/>
<path d="M493.957 296.495L494.529 296.827L493.957 297.16V296.495Z" fill="white"/>
<path d="M501.725 283.069L502.266 282.768V283.381L501.725 283.069Z" fill="white"/>
<path d="M517.823 255.334L518.239 255.573L517.823 255.823V255.334Z" fill="white"/>
<path d="M525.695 241.825L526.007 241.649V242.002L525.695 241.825Z" fill="white"/>
<path d="M541.71 214.215L541.908 214.33L541.71 214.444V214.215Z" fill="white"/>
<path d="M549.645 200.582L549.748 200.519V200.633L549.645 200.582Z" fill="white"/>
<path d="M517.708 282.632L518.468 283.069L517.708 283.516V282.632Z" fill="white"/>
<path d="M525.467 269.321L526.111 268.957V269.696L525.467 269.321Z" fill="white"/>
<path d="M541.596 241.513L542.126 241.825L541.596 242.137V241.513Z" fill="white"/>
<path d="M549.437 228.078L549.853 227.828V228.317L549.437 228.078Z" fill="white"/>
<path d="M565.514 200.436L565.753 200.582L565.514 200.717V200.436Z" fill="white"/>
<path d="M573.397 186.824L573.595 186.709V186.938L573.397 186.824Z" fill="white"/>
<path d="M525.238 296.827L526.226 296.255V297.399L525.238 296.827Z" fill="white"/>
<path d="M541.481 268.822L542.355 269.321L541.481 269.831V268.822Z" fill="white"/>
<path d="M549.208 255.573L549.967 255.137V256.01L549.208 255.573Z" fill="white"/>
<path d="M565.379 227.703L566.024 228.078L565.379 228.452V227.703Z" fill="white"/>
<path d="M573.168 214.33L573.709 214.018V214.631L573.168 214.33Z" fill="white"/>
<path d="M589.297 186.647L589.609 186.824L589.297 187V186.647Z" fill="white"/>
<path d="M597.201 173.076L597.409 172.961V173.2L597.201 173.076Z" fill="white"/>
<path d="M541.367 296.12L542.594 296.827L541.367 297.535V296.12Z" fill="white"/>
<path d="M548.948 283.069L550.092 282.414V283.735L548.948 283.069Z" fill="white"/>
<path d="M565.265 255.001L566.253 255.573L565.265 256.145V255.001Z" fill="white"/>
<path d="M572.95 241.825L573.823 241.316V242.335L572.95 241.825Z" fill="white"/>
<path d="M589.193 213.955L589.838 214.33L589.193 214.704V213.955Z" fill="white"/>
<path d="M596.993 200.582L597.523 200.27V200.883L596.993 200.582Z" fill="white"/>
<path d="M565.14 282.3L566.492 283.069L565.14 283.849V282.3Z" fill="white"/>
<path d="M572.71 269.321L573.938 268.614V270.028L572.71 269.321Z" fill="white"/>
<path d="M589.079 241.254L590.067 241.825L589.079 242.397V241.254Z" fill="white"/>
<path d="M596.764 228.078L597.638 227.568V228.587L596.764 228.078Z" fill="white"/>
<path d="M572.451 296.827L574.073 295.891V297.753L572.451 296.827Z" fill="white"/>
<path d="M588.944 268.531L590.327 269.321L588.944 270.122V268.531Z" fill="white"/>
<path d="M596.525 255.573L597.752 254.866V256.281L596.525 255.573Z" fill="white"/>
<path d="M588.798 295.777L590.608 296.827L588.798 297.867V295.777Z" fill="white"/>
<path d="M596.265 283.069L597.887 282.144V284.005L596.265 283.069Z" fill="white"/>
</g>
</g>
</svg>
