<svg width="107" height="28" viewBox="0 0 107 28" fill="none" xmlns="http://www.w3.org/2000/svg">
<path d="M45.9238 19.6462V11.926L42.8933 17.6873H41.6694L38.6389 11.926V19.6462H36.366V8.0083H38.8137L42.3105 14.6338L45.8072 8.0083H48.2549V19.6462H45.9238Z" fill="#494949"/>
<path d="M50.4113 9.8519V7.6626H52.6259V9.8519H50.4113ZM50.4113 19.6461V11.0618H52.6259V19.6461H50.4113Z" fill="#494949"/>
<path d="M62.7081 19.6461H60.4935V14.8066C60.4935 14.1153 60.3769 13.5967 60.1438 13.3087C59.9107 13.0206 59.561 12.8478 59.1531 12.8478C58.9199 12.8478 58.6868 12.9054 58.4537 12.963C58.2206 13.0782 57.9875 13.1934 57.8126 13.3087C57.5795 13.4815 57.4047 13.6544 57.2299 13.8848C57.055 14.1153 56.9385 14.3457 56.8802 14.6338V19.6461H54.6656V11.0618H56.6471V12.6749C56.9385 12.1564 57.4047 11.6955 58.0458 11.4074C58.6286 11.1194 59.3279 10.9465 60.0855 10.9465C60.61 10.9465 61.0763 11.0618 61.4259 11.2346C61.7756 11.4074 62.0087 11.6955 62.2418 11.9836C62.4167 12.3293 62.5332 12.6749 62.6498 13.0782C62.7081 13.4815 62.7663 13.8848 62.7663 14.2881V19.6461H62.7081Z" fill="#494949"/>
<path d="M68.2446 19.819C67.6618 19.819 67.079 19.7037 66.6127 19.4733C66.0882 19.2428 65.6803 18.9548 65.3306 18.4939C64.9809 18.0906 64.6895 17.6297 64.4564 17.0535C64.2233 16.535 64.165 15.9589 64.165 15.3251C64.165 14.6914 64.2816 14.1153 64.4564 13.5968C64.6313 13.0782 64.9227 12.6173 65.2723 12.214C65.622 11.8107 66.03 11.4651 66.4962 11.2346C66.9624 11.0042 67.4869 10.8889 68.0697 10.8889C68.7108 10.8889 69.2936 11.0618 69.8181 11.3498C70.3426 11.6379 70.7506 12.0412 71.0419 12.5597V7.6626H73.2565V17.1112C73.2565 17.3416 73.3148 17.5144 73.3731 17.6297C73.4314 17.7449 73.6062 17.8025 73.7811 17.8025V19.6461C73.3731 19.7037 73.0817 19.7614 72.8486 19.7614C72.4406 19.7614 72.1492 19.6461 71.8578 19.4733C71.6247 19.3005 71.4499 19.0124 71.4499 18.7243L71.3916 18.2058C71.0419 18.7243 70.634 19.1852 70.1095 19.4157C69.4684 19.7037 68.8856 19.819 68.2446 19.819ZM68.8273 17.9753C69.0605 17.9753 69.2353 17.9177 69.4684 17.8601C69.7015 17.8025 69.8764 17.6873 70.1095 17.5721C70.2843 17.4568 70.4592 17.284 70.634 17.1112C70.8088 16.9383 70.9254 16.7655 70.9837 16.535V14.4609C70.8671 14.2305 70.7505 14 70.634 13.7696C70.4592 13.5391 70.2843 13.3663 70.1095 13.2511C69.8764 13.0782 69.7015 12.963 69.4684 12.9054C69.2353 12.7902 69.0022 12.7902 68.7691 12.7902C68.4194 12.7902 68.128 12.8478 67.8366 13.0206C67.5452 13.1358 67.3121 13.3663 67.1373 13.5968C66.9624 13.8272 66.7876 14.1153 66.671 14.4609C66.5545 14.8066 66.4962 15.0947 66.4962 15.4404C66.4962 15.7861 66.5545 16.1317 66.671 16.4198C66.7876 16.7079 66.9624 16.9959 67.1955 17.2264C67.4287 17.4568 67.6618 17.6297 67.9532 17.7449C68.2446 17.8601 68.4777 17.9753 68.8273 17.9753Z" fill="#494949"/>
<path d="M85.4951 8.0083V19.6462H83.2222V14.6914H77.8606V19.6462H75.5877V8.0083H77.8606V12.7326H83.2222V8.0083H85.4951Z" fill="#494949"/>
<path d="M90.3905 19.819C89.5164 19.819 88.817 19.5309 88.3508 18.9548C87.8845 18.3786 87.6514 17.5721 87.6514 16.4198V11.0618H89.866V15.9589C89.866 17.284 90.3322 17.9177 91.323 17.9177C91.7309 17.9177 92.1972 17.8025 92.5469 17.5144C92.9548 17.284 93.3045 16.8807 93.5376 16.3622V11.0618H95.7522V17.1111C95.7522 17.3416 95.8105 17.5144 95.8687 17.6297C95.927 17.7449 96.1019 17.8025 96.2767 17.8025V19.6461C96.0436 19.7037 95.8687 19.7037 95.6939 19.7037C95.5191 19.7037 95.4025 19.7037 95.286 19.7037C94.878 19.7037 94.5866 19.5885 94.2952 19.4157C94.0038 19.2428 93.8873 19.0124 93.829 18.6667L93.7707 17.9753C93.3628 18.5515 92.8965 19.0124 92.2555 19.3005C91.7892 19.7037 91.0899 19.819 90.3905 19.819Z" fill="#494949"/>
<path d="M102.92 19.819C102.279 19.819 101.638 19.6461 101.172 19.3581C100.648 19.07 100.24 18.6667 99.9482 18.1482V19.6461H98.025V7.72021H100.24V12.6173C100.531 12.0988 100.939 11.6955 101.463 11.4075C101.988 11.1194 102.571 10.9466 103.212 10.9466C103.795 10.9466 104.261 11.0618 104.727 11.2922C105.193 11.5227 105.601 11.8684 105.951 12.2717C106.301 12.6749 106.534 13.1359 106.709 13.712C106.883 14.2305 107 14.8066 107 15.4404C107 16.0741 106.883 16.6503 106.709 17.1688C106.475 17.6873 106.242 18.1482 105.834 18.5515C105.426 18.9548 105.018 19.2428 104.552 19.4733C104.086 19.7038 103.503 19.819 102.92 19.819ZM102.279 17.9754C102.629 17.9754 102.979 17.9177 103.27 17.7449C103.562 17.6297 103.795 17.3992 104.028 17.1688C104.261 16.9383 104.377 16.6503 104.494 16.3622C104.611 16.0741 104.669 15.7284 104.669 15.3828C104.669 15.0371 104.611 14.6914 104.494 14.4033C104.377 14.1153 104.203 13.8272 104.028 13.5391C103.795 13.3087 103.562 13.1359 103.328 12.963C103.037 12.8478 102.746 12.7326 102.396 12.7326C101.871 12.7326 101.463 12.9054 101.056 13.1935C100.648 13.5391 100.356 13.8848 100.123 14.4033V16.4774C100.181 16.7079 100.298 16.8807 100.473 17.0535C100.648 17.2264 100.764 17.3992 100.997 17.5145C101.172 17.6297 101.405 17.7449 101.638 17.8025C101.871 17.9177 102.105 17.9754 102.279 17.9754Z" fill="#494949"/>
<path d="M24.5354 0H8.15904L0 14L8.15904 28H24.5354L32.6944 14L24.5354 0ZM9.96569 2.99588H22.5539L22.7288 12.2716L11.073 5.7037L6.52723 8.87243L9.96569 2.99588ZM3.72985 14.2881L10.9564 9.04527L19.7565 13.9424L13.7538 17.2839L13.8704 10.6584L10.9564 9.04527V22.2387L16.9009 24.9465H9.96569L3.72985 14.2881ZM23.0202 24.6008L13.6955 20.4527L13.9286 20.5679L25.4679 13.9424L25.2348 7.20165L29.1977 13.9424L23.0202 24.6008Z" fill="url(#paint0_linear_1_20896)"/>
<path opacity="0.52" d="M23.0201 24.6008L22.787 25.0041H16.9009L10.9564 22.2387V9.10291L13.8704 10.7161L13.7538 17.3416L13.6955 20.4527L13.9286 20.5679L23.0201 24.6008Z" fill="url(#paint1_linear_1_20896)"/>
<path opacity="0.52" d="M22.6704 12.3292L19.7565 13.9424L13.8703 10.7161L10.9564 9.10291L3.72982 14.2881L3.4967 14L6.52721 8.87246L11.073 5.70374L22.6704 12.3292Z" fill="url(#paint2_linear_1_20896)"/>
<path opacity="0.52" d="M25.4679 13.9424L13.9287 20.5679L13.6956 20.4526L13.7538 17.3415L19.7566 13.9424L22.6705 12.3292L22.4957 2.99585H22.7871L25.2348 7.25922L25.4679 13.9424Z" fill="url(#paint3_linear_1_20896)"/>
<defs>
<linearGradient id="paint0_linear_1_20896" x1="3.69191" y1="26.349" x2="28.0832" y2="2.01298" gradientUnits="userSpaceOnUse">
<stop offset="0.0354565" stop-color="#6FC59B"/>
<stop offset="0.4481" stop-color="#ACBE6D"/>
<stop offset="0.7592" stop-color="#DCB949"/>
</linearGradient>
<linearGradient id="paint1_linear_1_20896" x1="17.0816" y1="9.30853" x2="16.9994" y2="15.335" gradientUnits="userSpaceOnUse">
<stop stop-color="#6FC59B"/>
<stop offset="0.5473" stop-color="#BEE29C" stop-opacity="0.4527"/>
<stop offset="1" stop-color="#FBF89C" stop-opacity="0"/>
</linearGradient>
<linearGradient id="paint2_linear_1_20896" x1="12.2649" y1="12.6998" x2="18.6516" y2="17.0068" gradientUnits="userSpaceOnUse">
<stop stop-color="#FBF89C" stop-opacity="0"/>
<stop offset="0.4527" stop-color="#BEE29C" stop-opacity="0.4527"/>
<stop offset="1" stop-color="#6FC59B"/>
</linearGradient>
<linearGradient id="paint3_linear_1_20896" x1="12.3169" y1="12.471" x2="17.4023" y2="11.8757" gradientUnits="userSpaceOnUse">
<stop stop-color="#6FC59B"/>
<stop offset="0.5473" stop-color="#BEE29C" stop-opacity="0.4527"/>
<stop offset="1" stop-color="#FBF89C" stop-opacity="0"/>
</linearGradient>
</defs>
</svg>
