<svg width="40" height="41" viewBox="0 0 40 41" fill="none" xmlns="http://www.w3.org/2000/svg">
  <rect y="0.333496" width="40" height="40" rx="8" fill="white" />
  <path
    d="M10 27.0002C10 27.6113 10.5 28.1113 11.1111 28.1113H16.6667V25.8891H11.1111C10.5 25.8891 10 26.3891 10 27.0002ZM10 13.6668C10 14.2779 10.5 14.7779 11.1111 14.7779H21.1111V12.5557H11.1111C10.5 12.5557 10 13.0557 10 13.6668ZM21.1111 29.2224V28.1113H28.8889C29.5 28.1113 30 27.6113 30 27.0002C30 26.3891 29.5 25.8891 28.8889 25.8891H21.1111V24.7779C21.1111 24.1668 20.6111 23.6668 20 23.6668C19.3889 23.6668 18.8889 24.1668 18.8889 24.7779V29.2224C18.8889 29.8335 19.3889 30.3335 20 30.3335C20.6111 30.3335 21.1111 29.8335 21.1111 29.2224ZM14.4444 18.1113V19.2224H11.1111C10.5 19.2224 10 19.7224 10 20.3335C10 20.9446 10.5 21.4446 11.1111 21.4446H14.4444V22.5557C14.4444 23.1668 14.9444 23.6668 15.5556 23.6668C16.1667 23.6668 16.6667 23.1668 16.6667 22.5557V18.1113C16.6667 17.5002 16.1667 17.0002 15.5556 17.0002C14.9444 17.0002 14.4444 17.5002 14.4444 18.1113ZM30 20.3335C30 19.7224 29.5 19.2224 28.8889 19.2224H18.8889V21.4446H28.8889C29.5 21.4446 30 20.9446 30 20.3335ZM24.4444 17.0002C25.0556 17.0002 25.5556 16.5002 25.5556 15.8891V14.7779H28.8889C29.5 14.7779 30 14.2779 30 13.6668C30 13.0557 29.5 12.5557 28.8889 12.5557H25.5556V11.4446C25.5556 10.8335 25.0556 10.3335 24.4444 10.3335C23.8333 10.3335 23.3333 10.8335 23.3333 11.4446V15.8891C23.3333 16.5002 23.8333 17.0002 24.4444 17.0002Z"
    fill="#404040" />
</svg>
  