<svg width="24" height="27" viewBox="0 0 24 27" fill="none" xmlns="http://www.w3.org/2000/svg">
  <path fill-rule="evenodd" clip-rule="evenodd"
    d="M10.3242 22.606C10.8422 23.183 11.5072 23.5 12.1972 23.5H12.1982C12.8912 23.5 13.5592 23.183 14.0782 22.605C14.3562 22.298 14.8302 22.273 15.1372 22.55C15.4452 22.827 15.4702 23.302 15.1932 23.609C14.3852 24.506 13.3222 25 12.1982 25H12.1962C11.0752 24.999 10.0142 24.505 9.20923 23.608C8.93223 23.301 8.95723 22.826 9.26523 22.55C9.57323 22.272 10.0472 22.297 10.3242 22.606ZM12.247 3.5C16.692 3.5 19.678 6.962 19.678 10.195C19.678 11.858 20.101 12.563 20.55 13.311C20.994 14.049 21.497 14.887 21.497 16.471C21.148 20.518 16.923 20.848 12.247 20.848C7.57103 20.848 3.34503 20.518 3.00001 16.535C2.99703 14.887 3.50003 14.049 3.94403 13.311L4.10077 13.0472C4.4867 12.3839 4.81603 11.6624 4.81603 10.195C4.81603 6.962 7.80203 3.5 12.247 3.5ZM12.247 5C8.75203 5 6.31603 7.738 6.31603 10.195C6.31603 12.274 5.73903 13.235 5.22903 14.083C4.82003 14.764 4.49703 15.302 4.49703 16.471C4.66403 18.357 5.90903 19.348 12.247 19.348C18.55 19.348 19.834 18.313 20 16.406C19.997 15.302 19.674 14.764 19.265 14.083C18.755 13.235 18.178 12.274 18.178 10.195C18.178 7.738 15.742 5 12.247 5Z"
    fill="black" />
  <circle cx="19" cy="5.5" r="5" fill="#6FC59B" />
</svg>
  