<svg width="16" height="16" viewBox="0 0 16 16" fill="none" xmlns="http://www.w3.org/2000/svg">
  <path
    d="M7.10669 12.3046C8.47709 12.3046 9.79136 11.749 10.7604 10.7601C11.7294 9.77117 12.2738 8.42991 12.2738 7.03137C12.2738 5.63283 11.7294 4.29158 10.7604 3.30266C9.79136 2.31374 8.47709 1.75817 7.10669 1.75817C5.73629 1.75817 4.42202 2.31374 3.453 3.30266C2.48399 4.29158 1.9396 5.63283 1.9396 7.03137C1.9396 8.42991 2.48399 9.77117 3.453 10.7601C4.42202 11.749 5.73629 12.3046 7.10669 12.3046ZM12.5494 11.3431L15.6324 14.4894C15.7146 14.5706 15.7801 14.6676 15.8252 14.7748C15.8703 14.8821 15.8939 14.9974 15.8948 15.1141C15.8958 15.2308 15.8739 15.3465 15.8305 15.4545C15.7871 15.5625 15.7231 15.6606 15.6422 15.743C15.5613 15.8255 15.4651 15.8907 15.3592 15.9348C15.2534 15.9789 15.1399 16.0011 15.0256 16C14.9113 15.9989 14.7983 15.9746 14.6932 15.9284C14.5882 15.8823 14.4932 15.8153 14.4138 15.7313L11.3308 12.5849C9.94641 13.6816 8.20452 14.1987 6.45973 14.0308C4.71494 13.863 3.09841 13.0229 1.93921 11.6815C0.78001 10.3401 0.165288 8.59834 0.22018 6.81071C0.275073 5.02308 0.995455 3.32398 2.23468 2.05931C3.4739 0.794647 5.13881 0.059473 6.89047 0.00345308C8.64214 -0.0525668 10.3489 0.574778 11.6633 1.75778C12.9776 2.94078 13.8009 4.59051 13.9653 6.37113C14.1298 8.15175 13.6231 9.9294 12.5485 11.3422L12.5494 11.3431Z"
    fill="#656572" />
</svg>
  